<svg xmlns="http://www.w3.org/2000/svg" width="1298" height="762" viewBox="0 0 1298 762"><g fill="none" fill-rule="evenodd"><path fill="#FFED71" fill-rule="nonzero" d="M218.860376,758.828125 C219,624.921875 204.339844,424.859375 169.128906,376.171875 C142.121094,338.820313 106.488281,345.308594 89.429688,351.410156 C83.558594,353.511719 80.398438,358.820313 81.851563,363.988281 C112.050781,471.640625 120.089844,625.839844 122.210938,758.261719 L218.860376,758.828125"/><polyline fill="#E5473E" fill-rule="nonzero" points="1180.289 758.828 1121.66 489.93 1112.559 519.949 1144.148 757.922 1180.289 758.828"/><path fill="#919191" fill-rule="nonzero" d="M1027.5,717.359375 L1027.69922,719.878906 L832.21875,735.699219 C831.101563,735.789063 830.21875,736.738281 830.21875,737.871094 L830.21875,755.660156 L1030.05859,739.488281 L1030.05859,722.050781 C1030.05859,721.441406 1029.80859,720.871094 1029.35938,720.449219 C1028.91016,720.03125 1028.32031,719.828125 1027.69922,719.878906 L1027.5,717.359375 Z M825.171875,761.140625 L825.171875,737.871094 C825.171875,734.128906 828.089844,730.96875 831.820313,730.671875 L1027.30078,714.851563 C1029.30078,714.691406 1031.30078,715.371094 1032.78125,716.738281 C1034.26172,718.101563 1035.10938,720.039063 1035.10938,722.050781 L1035.10938,744.148438 L825.171875,761.140625"/><path fill="#919191" fill-rule="nonzero" d="M1027.5,717.359375 L1027.69922,719.878906 L832.21875,735.699219 C831.101563,735.789063 830.21875,736.738281 830.21875,737.871094 L830.21875,754.890625 L1030.05859,739.480469 L1030.05859,722.050781 C1030.05859,721.441406 1029.80859,720.871094 1029.35938,720.449219 C1028.91016,720.03125 1028.32031,719.828125 1027.69922,719.878906 L1027.5,717.359375 Z M825.171875,760.339844 L825.171875,737.871094 C825.171875,734.128906 828.089844,730.96875 831.820313,730.671875 L1027.30078,714.851563 C1029.30078,714.691406 1031.30078,715.371094 1032.78125,716.738281 C1034.26172,718.101563 1035.10938,720.039063 1035.10938,722.050781 L1035.10938,744.160156 L825.171875,760.339844"/><path fill="#919191" fill-rule="nonzero" d="M1008.26172,760.050781 C1006.85938,760.050781 1005.73047,758.921875 1005.73047,757.519531 L1005.73047,743.789063 C1005.73047,742.398438 1006.85938,741.269531 1008.26172,741.269531 C1009.64844,741.269531 1010.78125,742.398438 1010.78125,743.789063 L1010.78125,757.519531 C1010.78125,758.921875 1009.64844,760.050781 1008.26172,760.050781"/><path fill="#E5473E" fill-rule="nonzero" d="M1165.53125,316.710938 L1142.32031,310.179688 C1139.83984,309.480469 1137.26172,310.929688 1136.55859,313.410156 L1035.10156,674.179688 C1034.39844,676.671875 1035.83984,679.238281 1038.32031,679.941406 L1061.53906,686.46875 C1064.01953,687.171875 1066.60156,685.71875 1067.30078,683.238281 L1168.76172,322.46875 C1169.46094,319.980469 1168.01953,317.410156 1165.53125,316.710938"/><path fill="#BF1200" fill-rule="nonzero" d="M1113.28125,522.269531 C1113.05078,522.269531 1112.82031,522.238281 1112.58984,522.179688 C1111.25,521.800781 1110.46875,520.410156 1110.85156,519.058594 L1118.53906,491.699219 C1118.92188,490.359375 1120.32031,489.578125 1121.66016,489.949219 C1123,490.328125 1123.78125,491.730469 1123.39844,493.070313 L1115.71094,520.429688 C1115.39844,521.539063 1114.37891,522.269531 1113.28125,522.269531"/><path fill="#3A91F9" fill-rule="nonzero" d="M935.558594 411.589844 911.238281 411.589844C909.140625 411.589844 907.449219 409.890625 907.449219 407.800781 907.449219 405.710938 909.140625 404.011719 911.238281 404.011719L935.558594 404.011719C937.648438 404.011719 939.339844 405.710938 939.339844 407.800781 939.339844 409.890625 937.648438 411.589844 935.558594 411.589844M894.359375 342.269531C893.761719 342.269531 893.148438 342.128906 892.578125 341.820313 890.738281 340.828125 890.039063 338.539063 891.03125 336.691406 894.191406 330.800781 901.140625 326.519531 907.550781 326.519531L932.308594 326.519531C934.398438 326.519531 936.101563 328.210938 936.101563 330.308594 936.101563 332.398438 934.398438 334.089844 932.308594 334.089844L907.550781 334.089844C903.890625 334.089844 899.558594 336.808594 897.710938 340.269531 897.019531 341.550781 895.71875 342.269531 894.359375 342.269531"/><path fill="#FFED71" fill-rule="nonzero" d="M995.75,434.828125 L972.050781,434.828125 C947.28125,434.828125 927.210938,414.761719 927.210938,389.988281 L927.210938,309.441406 L1040.58984,309.441406 L1040.58984,389.988281 C1040.58984,414.761719 1020.51172,434.828125 995.75,434.828125"/><path fill="#FCA688" fill-rule="nonzero" d="M768.398438 410.929688C780.71875 400.691406 798.769531 358.199219 805.96875 347.53125 813.179688 336.859375 821.261719 326.800781 827.539063 321.320313 833.820313 315.839844 845.140625 305.800781 852.859375 302.878906 861.421875 299.640625 870.960938 304.96875 866.621094 318.710938 864.488281 325.480469 858.921875 334.28125 854.769531 340.871094 862.011719 342.300781 872.300781 341.339844 880.429688 340.101563 884.390625 337.609375 893.03125 336.871094 899.921875 336.660156 906.410156 336.460938 919.621094 336.511719 921.988281 340.308594 924.988281 345.109375 924.71875 352.5 921.519531 356.160156 920.300781 357.558594 915.589844 358.488281 912.109375 358.980469 922.671875 358.300781 925.648438 364.441406 925.78125 368.039063 925.910156 371.640625 926.179688 380.070313 917.660156 380.679688 925.148438 380.230469 927.910156 385.929688 927.269531 392.328125 926.628906 398.269531 921.578125 401.359375 915.839844 402.960938 913.929688 403.488281 911.96875 403.820313 910 403.941406 917.261719 404.351563 926.929688 407.898438 929.410156 410.929688 932.25 414.398438 931.871094 424.398438 929.199219 428.300781 926.53125 432.199219 922.359375 435.988281 909.910156 435.808594 899.089844 435.660156 885.828125 436.96875 878.089844 441.511719 870.359375 446.039063 843.191406 464.328125 825.578125 465.671875L768.398438 410.929688M704.28125 644.738281C721.269531 646.101563 729.078125 646.800781 741.550781 646.328125 778.761719 644.660156 822.21875 647.851563 845.5 646.46875 868.230469 645.988281 901.320313 645.191406 902.558594 658.289063 903.71875 670.578125 889.929688 667.398438 877.261719 667.851563 874.589844 667.949219 862.761719 668.890625 853.308594 671.671875 870.28125 677.261719 881.691406 683.878906 892.628906 700.820313 896.308594 706.511719 898.96875 710.828125 896.101563 715.699219 894.589844 718.269531 891.101563 720.570313 885.121094 718.878906 879.761719 725.300781 870.960938 722.761719 864.109375 716.410156 864.878906 719.03125 864.230469 721.578125 861.480469 724.050781 859.320313 725.988281 856.378906 727.488281 850.078125 726.101563 828.21875 721.28125 806.589844 720.699219 796.289063 722.460938 785.988281 724.230469 766.941406 736.109375 746.300781 736.210938 721.601563 736.339844 713.648438 730.878906 705.828125 725.601563 702.589844 725.539063 698.578125 725.46875 694.230469 725.390625L704.28125 644.738281"/><path fill="#313438" fill-rule="nonzero" d="M539.269531,28.820313 C551.871094,28.671875 574.28125,36.25 583.738281,38.789063 C596.320313,42.171875 573.738281,48.558594 580.128906,54.929688 C587.140625,61.910156 612.011719,55.128906 613.300781,62.578125 C616.898438,83.25 606.800781,106.261719 582.261719,115.519531 C582.261719,115.519531 554.960938,136.371094 494.898438,139.800781 C485.710938,156.570313 431.328125,255.300781 410.511719,258.550781 C389.679688,261.800781 381.609375,250.828125 381.609375,250.828125 C349.21875,227.289063 326.761719,196.070313 320.820313,144.558594 C317.511719,115.898438 321.578125,46.929688 385.199219,15.710938 C398.339844,9.269531 453.101563,-17.898437 513.71875,19.820313 C513.71875,19.820313 534.28125,24 537.179688,26.238281 C540.078125,28.480469 539.269531,28.820313 539.269531,28.820313"/><path fill="#FCA688" fill-rule="nonzero" d="M457.050781,168.851563 C461.5,154.25 472.660156,129.261719 496.601563,114.921875 C511.621094,105.929688 538.050781,127.691406 578.558594,116.738281 C579.890625,116.378906 581,115.96875 582.261719,115.519531 C581.609375,127.371094 579.589844,138.699219 578.699219,144.980469 C577.28125,154.890625 574.449219,174.78125 574.289063,184.800781 C574.03125,200.960938 575.660156,206.621094 579,212.191406 C582.75,218.449219 586.378906,225.800781 584.46875,230.359375 C582.101563,236 575.859375,237.800781 562.210938,236.210938 C554.460938,270.558594 539.449219,295.5 524.628906,301.179688 C511.480469,306.21875 496.039063,303.390625 481.511719,297.601563 C474.210938,323.019531 473.128906,360.148438 476.511719,376.761719 C476.511719,376.761719 427.050781,369.070313 401.710938,357.558594 C376.378906,346.039063 353.339844,324.910156 353.339844,324.910156 C365.480469,306.039063 378.980469,271.78125 384.121094,252.628906 C398.101563,253.148438 418.960938,237.949219 427.460938,216.578125 L457.050781,168.851563"/><path fill="#2E2E2E" fill-rule="nonzero" d="M441.371094,220.921875 C438.480469,220.921875 435.609375,220.511719 432.78125,219.679688 C424.929688,217.378906 418.460938,212.171875 414.53125,205 C410.609375,197.828125 409.710938,189.558594 412.011719,181.71875 C416.75,165.53125 433.78125,156.210938 449.96875,160.949219 C454.03125,162.140625 457.71875,164.101563 460.941406,166.789063 C462.308594,167.929688 462.5,169.96875 461.359375,171.339844 C460.21875,172.710938 458.179688,172.898438 456.800781,171.761719 C454.261719,169.640625 451.351563,168.101563 448.148438,167.160156 C435.378906,163.421875 421.949219,170.769531 418.21875,183.539063 C416.410156,189.71875 417.109375,196.238281 420.210938,201.898438 C423.300781,207.550781 428.410156,211.660156 434.589844,213.46875 C438.078125,214.488281 441.640625,214.71875 445.179688,214.148438 C446.949219,213.859375 448.609375,215.058594 448.890625,216.828125 C449.171875,218.589844 447.96875,220.25 446.210938,220.53125 C444.601563,220.789063 442.980469,220.921875 441.371094,220.921875"/><path fill="#2E2E2E" fill-rule="nonzero" d="M428.28125,189.109375 C427.988281,189.109375 427.691406,189.070313 427.398438,188.988281 C425.679688,188.511719 424.679688,186.71875 425.160156,185 C426.628906,179.761719 430.089844,175.609375 434.671875,173.601563 C439.230469,171.601563 444.449219,171.871094 449.351563,174.371094 C450.941406,175.179688 451.570313,177.128906 450.761719,178.71875 C449.949219,180.308594 448,180.941406 446.410156,180.128906 C443.269531,178.53125 440.019531,178.308594 437.261719,179.519531 C434.46875,180.75 432.328125,183.378906 431.390625,186.75 C430.988281,188.179688 429.691406,189.109375 428.28125,189.109375"/><path fill="#313438" fill-rule="nonzero" d="M551.691406 184.460938C550.691406 190.121094 547.179688 194.230469 543.859375 193.648438 540.53125 193.058594 538.648438 187.988281 539.660156 182.320313 540.660156 176.660156 544.171875 172.539063 547.488281 173.128906 550.808594 173.71875 552.691406 178.789063 551.691406 184.460938M525.570313 158.328125C524.449219 158.328125 523.359375 157.761719 522.738281 156.730469 521.808594 155.171875 522.320313 153.148438 523.878906 152.210938 536.789063 144.480469 555.75 144.28125 569.960938 151.738281 571.570313 152.578125 572.191406 154.570313 571.351563 156.179688 570.5 157.789063 568.519531 158.410156 566.910156 157.570313 554.609375 151.121094 538.308594 151.238281 527.261719 157.859375 526.730469 158.179688 526.148438 158.328125 525.570313 158.328125"/><path fill="#CC5548" fill-rule="nonzero" d="M479.550781 299.320313C479.21875 299.320313 478.890625 299.261719 478.570313 299.128906 462.328125 292.320313 447.160156 281.980469 437.289063 274.511719 436.179688 273.671875 435.960938 272.089844 436.800781 270.96875 437.640625 269.859375 439.230469 269.640625 440.339844 270.480469 449.96875 277.78125 464.769531 287.871094 480.519531 294.46875 481.808594 295.011719 482.421875 296.488281 481.878906 297.769531 481.46875 298.738281 480.53125 299.320313 479.550781 299.320313M532.398438 266.46875C521.558594 266.46875 508.589844 259.609375 503.03125 250.789063 502.289063 249.609375 502.640625 248.050781 503.820313 247.308594 505 246.558594 506.558594 246.921875 507.308594 248.089844 512.109375 255.710938 524.011719 261.839844 533.269531 261.398438 534.660156 261.320313 535.839844 262.421875 535.898438 263.808594 535.960938 265.199219 534.878906 266.378906 533.488281 266.441406 533.128906 266.460938 532.761719 266.46875 532.398438 266.46875"/><path fill="#E5473E" fill-rule="nonzero" d="M451.621094,149.628906 C459.160156,112.640625 477.109375,76.011719 502.890625,49.570313 C513.441406,38.761719 532.878906,26.140625 547.160156,29.570313 C547.371094,29.621094 547.480469,29.320313 547.269531,29.230469 C537.28125,25.011719 516.03125,17.589844 510.328125,17.121094 C495.859375,15.929688 482.371094,28.390625 474.710938,35.320313 C455.238281,52.929688 435.109375,90.058594 428.828125,145.550781 L451.621094,149.628906"/><path fill="#E5473E" fill-rule="nonzero" d="M397.28125,186.878906 C399.21875,161.960938 418.449219,143.03125 438.570313,144.601563 C458.691406,146.160156 473.429688,167.640625 471.488281,192.558594 C469.550781,217.480469 451.671875,236.410156 431.550781,234.851563 C411.429688,233.28125 395.339844,211.800781 397.28125,186.878906"/><path fill="#D4070F" fill-rule="nonzero" d="M451.789063,151.351563 C451.351563,151.351563 450.910156,151.238281 450.5,151 C446.71875,148.75 442.640625,147.441406 438.378906,147.109375 C435.398438,146.878906 432.378906,147.140625 429.398438,147.871094 C428.039063,148.210938 426.679688,147.378906 426.339844,146.03125 C426.011719,144.671875 426.839844,143.308594 428.191406,142.96875 C431.691406,142.109375 435.25,141.808594 438.769531,142.078125 C443.808594,142.46875 448.621094,144.011719 453.078125,146.660156 C454.28125,147.371094 454.671875,148.921875 453.960938,150.109375 C453.488281,150.910156 452.648438,151.351563 451.789063,151.351563"/><path fill="#4193F0" fill-rule="nonzero" d="M218.859375,758.828125 C234.578125,576.441406 247.171875,489.449219 266.730469,431.570313 C287.269531,370.808594 320.898438,344.671875 351.761719,322.03125 C376.648438,348.058594 427.148438,371.230469 478.828125,375.878906 L625.53125,531.789063 L743.070313,430.910156 L765.539063,408.230469 L833.859375,472.570313 C833.859375,472.570313 825.671875,482.28125 812.710938,497.851563 C788.769531,529.710938 735.949219,599.171875 694.550781,637.898438 L705.929688,639.320313 L693.21875,732.121094 C693.21875,732.121094 680.089844,731.75 660.03125,730.980469 C628.25,729.761719 566.878906,729.128906 514.421875,727.109375 C514.109375,738.628906 514.230469,749.558594 514.289063,758.308594 L218.859375,758.828125"/><path fill="#CC5548" fill-rule="nonzero" d="M852.511719 673.800781C852.25 673.800781 851.988281 673.761719 851.730469 673.671875 850.5 673.28125 849.238281 672.878906 847.949219 672.488281 841.359375 670.5 819.019531 667.71875 808.851563 667.328125 807.449219 667.28125 806.371094 666.101563 806.421875 664.710938 806.46875 663.320313 807.660156 662.21875 809.039063 662.289063 819.710938 662.691406 842.390625 665.539063 849.410156 667.660156 850.730469 668.058594 852.019531 668.460938 853.28125 668.871094 854.609375 669.300781 855.339844 670.71875 854.910156 672.050781 854.558594 673.121094 853.570313 673.800781 852.511719 673.800781M885.5 720.871094C885.050781 720.871094 884.601563 720.75 884.191406 720.5 883 719.769531 882.621094 718.21875 883.351563 717.03125 884.789063 714.648438 880.769531 707.480469 868.519531 696.808594 856.289063 686.160156 831.859375 679.050781 803.171875 677.800781 801.78125 677.738281 800.699219 676.558594 800.761719 675.160156 800.820313 673.769531 802.019531 672.679688 803.390625 672.75 833.191406 674.050781 858.769531 681.621094 871.828125 693 885.929688 705.28125 891.109375 714 887.660156 719.660156 887.179688 720.441406 886.351563 720.871094 885.5 720.871094"/><path fill="#CC5548" fill-rule="nonzero" d="M863.019531,716.441406 C862.160156,716.441406 861.320313,716 860.851563,715.210938 C857.300781,709.269531 845.738281,703.089844 839.019531,701.28125 C827.960938,698.289063 820.871094,698.140625 811.898438,697.941406 C806.609375,697.820313 800.621094,697.691406 793.03125,696.890625 C791.648438,696.75 790.640625,695.5 790.78125,694.121094 C790.929688,692.730469 792.171875,691.71875 793.558594,691.871094 C800.941406,692.640625 806.820313,692.769531 812.019531,692.890625 C820.960938,693.089844 828.679688,693.261719 840.328125,696.410156 C846.640625,698.109375 860.390625,704.609375 865.179688,712.621094 C865.898438,713.808594 865.511719,715.359375 864.308594,716.078125 C863.898438,716.320313 863.460938,716.441406 863.019531,716.441406"/><path fill="#0766E7" fill-rule="nonzero" d="M518.589844 594.480469C517.199219 594.480469 516.070313 593.351563 516.070313 591.960938 516.070313 565.890625 511.539063 519.78125 509.121094 502.378906 501.429688 447.230469 485.148438 401.5 479.019531 384.28125 478.488281 382.789063 478.019531 381.488281 477.640625 380.390625 477.179688 379.070313 477.871094 377.640625 479.191406 377.179688 480.511719 376.710938 481.949219 377.410156 482.410156 378.730469 482.789063 379.808594 483.25 381.109375 483.769531 382.589844 489.949219 399.941406 506.359375 446.019531 514.121094 501.679688 516.558594 519.210938 521.121094 565.660156 521.121094 591.960938 521.121094 593.351563 519.988281 594.480469 518.589844 594.480469M512.019531 729.539063C511.980469 729.539063 511.949219 729.539063 511.921875 729.539063 465.640625 727.71875 437.730469 725.160156 426.601563 721.730469L426.179688 721.601563 425.828125 721.339844C363.800781 674.851563 334.421875 576.980469 303.328125 473.359375L300.070313 462.511719C299.671875 461.171875 300.421875 459.769531 301.761719 459.359375 303.101563 458.96875 304.5 459.71875 304.898438 461.058594L308.160156 471.910156C338.949219 574.511719 368.039063 671.421875 428.5 717.03125 439.488281 720.269531 466.859375 722.710938 512.109375 724.5 513.511719 724.550781 514.589844 725.71875 514.540785 727.121094 514.480469 728.480469 513.359375 729.539063 512.019531 729.539063"/><path fill="#0766E7" fill-rule="nonzero" d="M692.640625,640.179688 C692.53125,640.179688 692.429688,640.179688 692.320313,640.160156 L675.078125,637.988281 L499.578125,591.070313 L499.238281,589.589844 C486.730469,535.839844 472.28125,471.609375 467.019531,446.429688 C466.738281,445.070313 467.621094,443.730469 468.980469,443.449219 C470.351563,443.160156 471.679688,444.039063 471.96875,445.398438 C477.171875,470.320313 491.390625,533.550781 503.808594,586.96875 L676.21875,633.070313 L692.949219,635.148438 C694.328125,635.328125 695.308594,636.589844 695.140625,637.96875 C694.980469,639.25 693.890625,640.179688 692.640625,640.179688"/><path fill="#0766E7" fill-rule="nonzero" d="M660.558594 731.378906C660.421875 731.378906 660.289063 731.371094 660.148438 731.351563 658.769531 731.121094 657.839844 729.820313 658.058594 728.449219L673.238281 635.140625C673.46875 633.769531 674.769531 632.828125 676.140625 633.058594 677.519531 633.28125 678.449219 634.578125 678.230469 635.960938L663.050781 729.261719C662.851563 730.5 661.769531 731.378906 660.558594 731.378906M609.121094 548.410156C608.398438 548.410156 607.699219 548.109375 607.199219 547.53125 606.289063 546.46875 606.410156 544.871094 607.46875 543.960938L622.570313 531.011719C623.628906 530.101563 625.21875 530.21875 626.128906 531.28125 627.039063 532.339844 626.921875 533.929688 625.859375 534.839844L610.761719 547.800781C610.28125 548.210938 609.699219 548.410156 609.121094 548.410156M811.789063 499.25C811.160156 499.25 810.53125 499.011719 810.039063 498.550781L742.230469 433.71875C741.21875 432.761719 741.179688 431.160156 742.148438 430.148438 743.109375 429.140625 744.710938 429.109375 745.71875 430.070313L813.53125 494.898438C814.539063 495.859375 814.578125 497.460938 813.609375 498.46875 813.121094 498.980469 812.449219 499.25 811.789063 499.25"/><path fill="#CC5548" fill-rule="nonzero" d="M894.371094,385.070313 C893.058594,385.070313 891.960938,384.070313 891.851563,382.75 C891.738281,381.359375 892.769531,380.140625 894.160156,380.03125 L916.910156,378.171875 C918.289063,378.050781 919.519531,379.089844 919.628906,380.480469 C919.75,381.871094 918.710938,383.089844 917.320313,383.199219 L894.570313,385.058594 C894.5,385.070313 894.429688,385.070313 894.371094,385.070313"/><path fill="#DBDBDB" fill-rule="nonzero" d="M985.449219,277.589844 C985.808594,279.179688 983.738281,280.171875 982.761719,278.859375 C962.550781,251.910156 974.511719,228.28125 980.679688,200.160156 C986.710938,172.710938 979.878906,142.820313 963.550781,128.390625 C962.378906,127.351563 963.351563,125.460938 964.878906,125.789063 C1002.71094,134.03125 1016.58984,173.398438 1003.37891,207.480469 C990.539063,240.589844 979.570313,251.871094 985.449219,277.589844"/><path fill="#FCA688" fill-rule="nonzero" d="M705.828125,725.601563 C702.589844,725.539063 697.890625,725.339844 693.550781,725.261719 L705.828125,725.601563"/><path fill="#CC5548" fill-rule="nonzero" d="M881.558594,385.578125 C874.980469,385.578125 871.441406,382.988281 869.628906,380.808594 C867.039063,377.710938 866.109375,373.371094 866.988281,368.601563 C868.609375,359.800781 876.050781,356.371094 892.679688,356.808594 C894.070313,356.851563 895.171875,358.011719 895.140625,359.398438 C895.101563,360.78125 893.980469,361.859375 892.621094,361.859375 C892.589844,361.859375 892.570313,361.859375 892.550781,361.859375 C874.929688,361.421875 872.679688,365.570313 871.949219,369.511719 C871.359375,372.738281 871.921875,375.679688 873.511719,377.578125 C875.140625,379.539063 877.851563,380.53125 881.558594,380.53125 C889.640625,380.53125 894.039063,380.039063 894.078125,380.039063 C895.460938,379.878906 896.71875,380.871094 896.878906,382.261719 C897.03125,383.640625 896.039063,384.890625 894.660156,385.050781 C894.46875,385.078125 889.96875,385.578125 881.558594,385.578125"/><path fill="#CC5548" fill-rule="nonzero" d="M898.039063 361.859375C896.359375 361.859375 894.730469 361.839844 893.160156 361.789063 888.671875 361.660156 880.488281 360.660156 876.238281 355.371094 874.089844 352.710938 873.328125 349.328125 874.03125 345.601563 874.738281 341.851563 876.429688 340.269531 878.929688 338.941406 880.148438 338.28125 881.691406 338.738281 882.339844 339.96875 883 341.199219 882.539063 342.730469 881.308594 343.390625 879.800781 344.191406 879.351563 344.679688 879 346.53125 878.558594 348.828125 878.949219 350.679688 880.171875 352.199219 882.320313 354.871094 887.230469 356.570313 893.308594 356.75 898.761719 356.898438 905.398438 356.761719 911.058594 356.371094 912.460938 356.269531 913.660156 357.320313 913.75 358.710938 913.851563 360.109375 912.800781 361.308594 911.410156 361.410156 907.128906 361.710938 902.460938 361.859375 898.039063 361.859375M908.058594 423.488281C907.75 423.488281 907.421875 423.429688 907.109375 423.300781 896.519531 419 895.671875 413.410156 896.101563 410.460938 896.839844 405.398438 902.070313 401.910156 906.710938 401.46875 907.570313 401.390625 908.519531 401.359375 909.519531 401.390625 910.921875 401.441406 912.011719 402.609375 911.960938 404 911.910156 405.398438 910.78125 406.519531 909.351563 406.441406 908.558594 406.410156 907.839844 406.429688 907.199219 406.488281 904.269531 406.78125 901.421875 408.96875 901.089844 411.191406 900.71875 413.71875 903.609375 416.429688 909.011719 418.628906 910.308594 419.148438 910.929688 420.621094 910.398438 421.910156 910 422.898438 909.058594 423.488281 908.058594 423.488281M833.859375 405.171875C833.21875 405.171875 832.570313 404.921875 832.078125 404.429688 831.089844 403.449219 831.089844 401.851563 832.078125 400.859375 844.28125 388.621094 845.601563 364.941406 845.601563 355.328125L845.609375 355.109375C846.011719 350.691406 848.558594 345.890625 851 341.78125 851.710938 340.589844 853.261719 340.191406 854.460938 340.898438 855.660156 341.609375 856.058594 343.160156 855.339844 344.359375 853.339844 347.738281 851 352.039063 850.648438 355.460938 850.640625 365.769531 849.140625 390.898438 835.648438 404.429688 835.160156 404.921875 834.511719 405.171875 833.859375 405.171875"/><path fill="#CC5548" fill-rule="nonzero" d="M892.421875,406.890625 C886.800781,406.890625 882.378906,405.421875 879.539063,402.589844 C877.160156,400.210938 876.019531,397.011719 876.238281,393.351563 C876.761719,384.671875 880.46875,382.71875 893.878906,380.070313 C895.238281,379.789063 896.570313,380.691406 896.851563,382.058594 C897.121094,383.429688 896.230469,384.75 894.859375,385.019531 C881.640625,387.628906 881.570313,388.789063 881.28125,393.648438 C881.148438,395.859375 881.761719,397.671875 883.109375,399.011719 C885.238281,401.140625 889.078125,402.101563 894.210938,401.78125 C898.441406,401.53125 901.828125,401.5 904.550781,401.480469 C905.800781,401.46875 906.949219,401.460938 908.03125,401.441406 C909.429688,401.378906 910.589844,402.5 910.621094,403.890625 C910.660156,405.28125 909.558594,406.441406 908.171875,406.480469 C907.058594,406.511719 905.878906,406.519531 904.589844,406.53125 C901.789063,406.550781 898.609375,406.570313 894.519531,406.820313 C893.800781,406.871094 893.101563,406.890625 892.421875,406.890625"/><path fill="#707477" fill-rule="nonzero" d="M1294.94141,761.359375 L2.851563,761.359375 C1.460938,761.359375 0.328125,760.230469 0.328125,758.828125 C0.328125,757.441406 1.460938,756.308594 2.851563,756.308594 L1294.94141,756.308594 C1296.32812,756.308594 1297.46094,757.441406 1297.46094,758.828125 C1297.46094,760.230469 1296.32812,761.359375 1294.94141,761.359375"/></g></svg>