<svg xmlns="http://www.w3.org/2000/svg" width='100%' height='100%'viewBox="0 0 1298 762" aria-labelledby="title">
  <title >An illustration of Dave drinking coffee and listening to music while coding on a computer</title>
  <g fill="none">
    <path fill="#FFED71" d="M218.86 758.828c.14-133.906-14.52-333.969-49.731-382.656-27.008-37.352-62.64-30.863-79.7-24.762-5.87 2.102-9.03 7.41-7.577 12.578C112.05 471.641 120.09 625.84 122.21 758.262l96.65.566"/>
    <path fill="#E5473E" d="M1180.289 758.828 1121.66 489.93l-9.101 30.019 31.589 237.973 36.141.906"/>
    <path fill="#919191" d="m1027.5 717.36.2 2.519-195.481 15.82c-1.117.09-2 1.04-2 2.172v17.79l199.84-16.173v-17.437c0-.61-.25-1.18-.7-1.602a2.151 2.151 0 0 0-1.66-.57l-.199-2.52Zm-202.328 43.78v-23.269c0-3.742 2.918-6.902 6.648-7.2l195.48-15.82c2-.16 4 .52 5.481 1.887a7.242 7.242 0 0 1 2.328 5.313v22.097l-209.937 16.993"/>
    <path fill="#919191" d="m1027.5 717.36.2 2.519-195.481 15.82c-1.117.09-2 1.04-2 2.172v17.02l199.84-15.41v-17.43c0-.61-.25-1.18-.7-1.602a2.151 2.151 0 0 0-1.66-.57l-.199-2.52Zm-202.328 42.98v-22.47c0-3.742 2.918-6.902 6.648-7.2l195.48-15.82c2-.16 4 .52 5.481 1.887a7.242 7.242 0 0 1 2.328 5.313v22.11l-209.937 16.18"/>
    <path fill="#919191" d="M1008.262 760.05a2.526 2.526 0 0 1-2.532-2.53v-13.73c0-1.392 1.13-2.52 2.532-2.52a2.523 2.523 0 0 1 2.52 2.52v13.73a2.526 2.526 0 0 1-2.52 2.53"/>
    <path fill="#E5473E" d="m1165.531 316.71-23.21-6.53c-2.481-.7-5.06.75-5.762 3.23l-101.457 360.77a4.66 4.66 0 0 0 3.218 5.761l23.22 6.528a4.67 4.67 0 0 0 5.76-3.23l101.462-360.77a4.66 4.66 0 0 0-3.23-5.758"/>
    <path fill="#BF1200" d="M1113.281 522.27a2.8 2.8 0 0 1-.691-.09 2.521 2.521 0 0 1-1.738-3.121l7.687-27.36a2.545 2.545 0 0 1 3.121-1.75 2.527 2.527 0 0 1 1.738 3.121l-7.687 27.36a2.534 2.534 0 0 1-2.43 1.84"/>
    <path fill="#3A91F9" d="M935.559 411.59h-24.32a3.789 3.789 0 1 1 0-7.578h24.32c2.09 0 3.78 1.699 3.78 3.789s-1.69 3.789-3.78 3.789m-41.2-69.32a3.788 3.788 0 0 1-3.328-5.578c3.16-5.891 10.11-10.172 16.52-10.172h24.758a3.791 3.791 0 0 1 3.793 3.789 3.79 3.79 0 0 1-3.793 3.78H907.55c-3.66 0-7.992 2.72-9.84 6.18a3.79 3.79 0 0 1-3.352 2"/>
    <path fill="#FFED71" d="M995.75 434.828h-23.7c-24.769 0-44.84-20.066-44.84-44.84v-80.547h113.38v80.547c0 24.774-20.078 44.84-44.84 44.84"/>
    <path fill="#FCA688" d="M768.398 410.93c12.32-10.239 30.372-52.73 37.57-63.399 7.212-10.672 15.294-20.73 21.571-26.21 6.281-5.481 17.602-15.52 25.32-18.442 8.563-3.238 18.102 2.09 13.762 15.832-2.133 6.77-7.7 15.57-11.851 22.16 7.242 1.43 17.53.469 25.66-.77 3.96-2.492 12.601-3.23 19.492-3.44 6.488-.2 19.7-.15 22.066 3.648 3 4.8 2.73 12.191-.468 15.851-1.22 1.399-5.93 2.328-9.41 2.82 10.562-.68 13.538 5.461 13.671 9.06.13 3.6.399 12.03-8.12 12.64 7.487-.45 10.25 5.25 9.609 11.648-.641 5.942-5.692 9.031-11.43 10.633-1.91.527-3.871.86-5.84.98 7.262.41 16.93 3.957 19.41 6.989 2.84 3.468 2.461 13.468-.21 17.37-2.669 3.9-6.84 7.688-19.29 7.509-10.82-.149-24.082 1.16-31.82 5.703-7.73 4.527-34.899 22.816-52.512 24.16l-57.18-54.742m-64.117 233.808c16.989 1.364 24.797 2.063 37.27 1.59 37.21-1.668 80.668 1.524 103.949.14 22.73-.48 55.82-1.277 57.059 11.821 1.16 12.29-12.63 9.11-25.297 9.563-2.672.097-14.5 1.039-23.953 3.82 16.972 5.59 28.382 12.207 39.32 29.148 3.68 5.692 6.34 10.008 3.473 14.88-1.512 2.57-5 4.87-10.98 3.179-5.36 6.422-14.161 3.883-21.013-2.469.77 2.621.121 5.168-2.629 7.64-2.16 1.938-5.101 3.438-11.402 2.052-21.86-4.82-43.488-5.403-53.789-3.641-10.3 1.77-29.348 13.648-49.988 13.75-24.7.129-32.653-5.332-40.473-10.61-3.238-.062-7.25-.132-11.598-.21l10.051-80.653"/>
    <path fill="#313438" d="M539.27 28.82c12.601-.148 35.011 7.43 44.468 9.97 12.582 3.382-10 9.769-3.61 16.14 7.013 6.98 31.884.199 33.173 7.648 3.597 20.672-6.5 43.684-31.04 52.942 0 0-27.3 20.851-87.363 24.28-9.187 16.77-63.57 115.5-84.386 118.75-20.832 3.25-28.903-7.722-28.903-7.722-32.39-23.539-54.847-54.758-60.789-106.27-3.308-28.66.758-97.628 64.38-128.847 13.14-6.441 67.902-33.61 128.519 4.11 0 0 20.562 4.179 23.46 6.417 2.9 2.242 2.09 2.582 2.09 2.582"/>
    <path fill="#FCA688" d="M457.05 168.852c4.45-14.602 15.61-39.59 39.552-53.93 15.02-8.992 41.449 12.77 81.957 1.816 1.332-.36 2.441-.77 3.703-1.218-.653 11.851-2.672 23.18-3.563 29.46-1.418 9.91-4.25 29.801-4.41 39.82-.258 16.16 1.371 21.821 4.711 27.391 3.75 6.258 7.379 13.61 5.469 18.168-2.367 5.641-8.61 7.442-22.258 5.852-7.75 34.348-22.762 59.289-37.582 64.969-13.149 5.039-28.59 2.21-43.117-3.578-7.301 25.418-8.383 62.546-5 79.16 0 0-49.461-7.692-74.801-19.203-25.332-11.52-48.371-32.649-48.371-32.649 12.14-18.87 25.64-53.129 30.781-72.281 13.98.52 34.84-14.68 43.34-36.05l29.59-47.727"/>
    <path fill="#2E2E2E" d="M441.371 220.922c-2.89 0-5.762-.41-8.59-1.242-7.851-2.301-14.32-7.508-18.25-14.68-3.922-7.172-4.82-15.441-2.52-23.281 4.739-16.188 21.77-25.508 37.958-20.77a30.346 30.346 0 0 1 10.972 5.84 3.236 3.236 0 0 1 .418 4.55 3.246 3.246 0 0 1-4.558.423c-2.54-2.121-5.45-3.66-8.653-4.602-12.77-3.738-26.199 3.61-29.93 16.38-1.808 6.179-1.109 12.698 1.993 18.358a23.948 23.948 0 0 0 14.379 11.57c3.488 1.02 7.05 1.25 10.59.68 1.77-.289 3.43.91 3.71 2.68a3.236 3.236 0 0 1-2.68 3.703c-1.608.258-3.23.39-4.839.39"/>
    <path fill="#2E2E2E" d="M428.281 189.11c-.293 0-.59-.04-.883-.122-1.718-.476-2.718-2.27-2.238-3.988 1.469-5.238 4.93-9.39 9.512-11.398 4.558-2 9.777-1.73 14.68.77a3.234 3.234 0 1 1-2.942 5.757c-3.14-1.598-6.39-1.82-9.148-.61-2.793 1.231-4.934 3.86-5.871 7.231a3.232 3.232 0 0 1-3.11 2.36"/>
    <path fill="#313438" d="M551.691 184.46c-1 5.661-4.511 9.77-7.832 9.188-3.328-.59-5.21-5.66-4.199-11.328 1-5.66 4.512-9.78 7.828-9.191 3.32.59 5.203 5.66 4.203 11.332m-26.12-26.133a3.295 3.295 0 0 1-2.833-1.598 3.305 3.305 0 0 1 1.14-4.52c12.911-7.73 31.872-7.929 46.083-.472a3.294 3.294 0 0 1 1.39 4.442 3.297 3.297 0 0 1-4.44 1.39c-12.302-6.449-28.602-6.332-39.65.29a3.256 3.256 0 0 1-1.69.468"/>
    <path fill="#CC5548" d="M479.55 299.32a2.53 2.53 0 0 1-.98-.191c-16.242-6.809-31.41-17.149-41.28-24.617a2.534 2.534 0 0 1-.49-3.543 2.531 2.531 0 0 1 3.54-.489c9.629 7.301 24.43 17.391 40.18 23.989 1.289.543 1.902 2.02 1.359 3.3a2.534 2.534 0 0 1-2.328 1.551m52.847-32.851c-10.84 0-23.808-6.86-29.367-15.68a2.523 2.523 0 0 1 .79-3.48c1.179-.75 2.738-.387 3.488.78 4.8 7.622 16.703 13.75 25.96 13.31 1.391-.079 2.57 1.023 2.63 2.41a2.526 2.526 0 0 1-2.41 2.632c-.36.02-.727.028-1.09.028"/>
    <path fill="#E5473E" d="M451.621 149.629c7.54-36.988 25.488-73.617 51.27-100.059 10.55-10.808 29.988-23.43 44.27-20 .21.051.32-.25.109-.34-9.989-4.218-31.239-11.64-36.942-12.109-14.469-1.191-27.957 11.27-35.617 18.2-19.473 17.609-39.602 54.738-45.883 110.23l22.793 4.078"/>
    <path fill="#E5473E" d="M397.281 186.879c1.938-24.918 21.168-43.848 41.29-42.277 20.12 1.558 34.859 23.039 32.917 47.957-1.937 24.921-19.816 43.851-39.937 42.293-20.121-1.57-36.211-23.051-34.27-47.973"/>
    <path fill="#D4070F" d="M451.79 151.352c-.438 0-.88-.114-1.29-.352-3.781-2.25-7.86-3.559-12.121-3.89-2.98-.231-6 .03-8.98.761a2.524 2.524 0 0 1-3.06-1.84 2.541 2.541 0 0 1 1.852-3.062c3.5-.86 7.059-1.16 10.579-.89 5.039.39 9.851 1.933 14.308 4.581a2.512 2.512 0 0 1 .883 3.45 2.518 2.518 0 0 1-2.172 1.242"/>
    <path fill="#4193F0" d="M218.86 758.828c15.718-182.387 28.312-269.379 47.87-327.258 20.54-60.761 54.168-86.898 85.032-109.539 24.886 26.028 75.386 49.2 127.066 53.848l146.703 155.91 117.54-100.879 22.468-22.68 68.32 64.34s-8.187 9.711-21.148 25.282c-23.941 31.859-76.762 101.32-118.16 140.046l11.379 1.422-12.711 92.801s-13.13-.371-33.188-1.14c-31.781-1.22-93.152-1.852-145.61-3.872-.312 11.52-.19 22.45-.132 31.2l-295.43.52"/>
    <path fill="#CC5548" d="M852.512 673.8c-.262 0-.524-.038-.782-.128-1.23-.39-2.492-.793-3.78-1.184-6.59-1.988-28.93-4.77-39.098-5.16a2.519 2.519 0 0 1-2.43-2.617c.047-1.39 1.238-2.492 2.617-2.422 10.672.402 33.352 3.25 40.371 5.371 1.32.399 2.61.8 3.871 1.211a2.524 2.524 0 0 1 1.63 3.18 2.533 2.533 0 0 1-2.4 1.75m32.989 47.07c-.45 0-.898-.121-1.309-.371a2.52 2.52 0 0 1-.84-3.469c1.438-2.383-2.581-9.55-14.831-20.222-12.23-10.649-36.66-17.758-65.348-19.008a2.529 2.529 0 0 1 .219-5.051c29.8 1.3 55.379 8.871 68.437 20.25 14.102 12.281 19.281 21 15.832 26.66a2.53 2.53 0 0 1-2.16 1.211"/>
    <path fill="#CC5548" d="M863.02 716.441c-.86 0-1.7-.441-2.168-1.23-3.551-5.941-15.114-12.121-21.832-13.93-11.06-2.992-18.149-3.14-27.122-3.34-5.289-.12-11.277-.25-18.867-1.05a2.53 2.53 0 0 1-2.25-2.77 2.524 2.524 0 0 1 2.778-2.25c7.382.77 13.261.899 18.46 1.02 8.942.199 16.66.37 28.31 3.52 6.312 1.698 20.062 8.198 24.85 16.21a2.513 2.513 0 0 1-.87 3.457 2.52 2.52 0 0 1-1.29.363"/>
    <path fill="#0766E7" d="M518.59 594.48a2.52 2.52 0 0 1-2.52-2.52c0-26.07-4.53-72.179-6.949-89.581C501.43 447.23 485.148 401.5 479.02 384.28c-.532-1.492-1-2.793-1.38-3.89a2.515 2.515 0 0 1 1.551-3.211 2.516 2.516 0 0 1 3.22 1.55c.378 1.079.839 2.38 1.359 3.86 6.18 17.351 22.59 63.43 30.351 119.09 2.438 17.53 7 63.98 7 90.28a2.525 2.525 0 0 1-2.531 2.52m-6.57 135.06h-.098c-46.281-1.821-74.192-4.38-85.32-7.81l-.422-.128-.352-.262c-62.027-46.488-91.406-144.36-122.5-247.98l-3.258-10.848a2.534 2.534 0 0 1 1.692-3.153c1.34-.39 2.738.36 3.136 1.7l3.262 10.851c30.79 102.602 59.88 199.512 120.34 245.121 10.988 3.239 38.36 5.68 83.61 7.469a2.52 2.52 0 0 1 2.43 2.621 2.529 2.529 0 0 1-2.52 2.418"/>
    <path fill="#0766E7" d="M692.64 640.18c-.109 0-.21 0-.32-.02l-17.242-2.172-175.5-46.918-.34-1.48c-12.508-53.75-26.957-117.98-32.218-143.16a2.53 2.53 0 0 1 1.96-2.98c1.372-.29 2.7.59 2.989 1.948 5.203 24.922 19.422 88.153 31.84 141.57l172.41 46.102 16.73 2.078a2.54 2.54 0 0 1 2.192 2.82 2.523 2.523 0 0 1-2.5 2.212"/>
    <path fill="#0766E7" d="M660.559 731.379c-.137 0-.27-.008-.41-.027a2.54 2.54 0 0 1-2.09-2.903l15.18-93.308a2.53 2.53 0 0 1 4.992.82l-15.18 93.3a2.53 2.53 0 0 1-2.492 2.118M609.12 548.41a2.52 2.52 0 0 1-1.922-.879 2.534 2.534 0 0 1 .27-3.57l15.101-12.95a2.517 2.517 0 0 1 3.559.27 2.517 2.517 0 0 1-.27 3.559l-15.097 12.96c-.48.41-1.063.61-1.64.61m202.667-49.16a2.562 2.562 0 0 1-1.75-.7l-67.808-64.83a2.517 2.517 0 0 1-.082-3.57 2.528 2.528 0 0 1 3.57-.079l67.813 64.828a2.52 2.52 0 0 1 .078 3.57 2.531 2.531 0 0 1-1.82.782"/>
    <path fill="#CC5548" d="M894.371 385.07c-1.312 0-2.41-1-2.52-2.32a2.517 2.517 0 0 1 2.31-2.719l22.75-1.86a2.518 2.518 0 0 1 2.718 2.31 2.511 2.511 0 0 1-2.309 2.718l-22.75 1.86c-.07.011-.14.011-.199.011"/>
    <path fill="#DBDBDB" d="M985.45 277.59c.359 1.59-1.712 2.582-2.688 1.27-20.211-26.95-8.25-50.579-2.082-78.7 6.03-27.45-.801-57.34-17.13-71.77-1.171-1.038-.198-2.93 1.329-2.6 37.832 8.241 51.71 47.608 38.5 81.69-12.84 33.11-23.809 44.391-17.93 70.11"/>
    <path fill="#FCA688" d="M705.828 725.602c-3.238-.063-7.937-.262-12.277-.34l12.277.34"/>
    <path fill="#CC5548" d="M881.559 385.578c-6.579 0-10.118-2.59-11.93-4.77-2.59-3.097-3.52-7.437-2.64-12.206 1.62-8.801 9.062-12.23 25.69-11.793a2.542 2.542 0 0 1 2.462 2.59 2.521 2.521 0 0 1-2.52 2.46h-.07c-17.621-.437-19.871 3.711-20.602 7.653-.59 3.226-.027 6.168 1.563 8.066 1.629 1.961 4.34 2.953 8.047 2.953 8.082 0 12.48-.492 12.52-.492a2.528 2.528 0 0 1 2.8 2.223 2.53 2.53 0 0 1-2.219 2.789c-.191.027-4.691.527-13.101.527"/>
    <path fill="#CC5548" d="M898.04 361.86c-1.68 0-3.31-.02-4.88-.07-4.488-.13-12.672-1.13-16.922-6.419-2.148-2.66-2.91-6.043-2.207-9.77.707-3.75 2.399-5.331 4.899-6.66a2.511 2.511 0 0 1 3.41 1.028c.66 1.23.2 2.761-1.031 3.422-1.508.8-1.957 1.289-2.309 3.14-.441 2.297-.05 4.149 1.172 5.668 2.148 2.672 7.058 4.371 13.137 4.551 5.453.148 12.09.012 17.75-.379a2.506 2.506 0 0 1 2.691 2.34 2.522 2.522 0 0 1-2.34 2.7c-4.281.3-8.95.448-13.37.448m10.019 61.63c-.309 0-.637-.06-.95-.188-10.59-4.301-11.437-9.89-11.007-12.84.738-5.063 5.968-8.55 10.609-8.992.86-.078 1.809-.11 2.809-.078a2.524 2.524 0 0 1 2.44 2.609c-.05 1.398-1.179 2.52-2.608 2.441a16.56 16.56 0 0 0-2.153.047c-2.93.293-5.777 2.48-6.11 4.703-.37 2.528 2.52 5.239 7.923 7.438a2.504 2.504 0 0 1 1.386 3.281 2.514 2.514 0 0 1-2.34 1.578m-74.199-18.316c-.64 0-1.289-.25-1.78-.742a2.52 2.52 0 0 1 0-3.57c12.202-12.239 13.523-35.919 13.523-45.532l.007-.219c.403-4.418 2.95-9.218 5.391-13.328a2.537 2.537 0 0 1 3.46-.883 2.518 2.518 0 0 1 .88 3.461c-2 3.38-4.34 7.68-4.692 11.102-.007 10.309-1.507 35.437-15 48.969a2.513 2.513 0 0 1-1.789.742"/>
    <path fill="#CC5548" d="M892.422 406.89c-5.621 0-10.043-1.468-12.883-4.3-2.379-2.38-3.52-5.578-3.3-9.238.523-8.68 4.23-10.633 17.64-13.282 1.36-.28 2.691.621 2.973 1.989a2.519 2.519 0 0 1-1.993 2.96c-13.218 2.61-13.289 3.77-13.578 8.63-.133 2.21.48 4.023 1.828 5.363 2.13 2.129 5.97 3.09 11.102 2.77 4.23-.25 7.617-.282 10.34-.302 1.25-.011 2.398-.02 3.48-.039 1.399-.062 2.559 1.059 2.59 2.45a2.524 2.524 0 0 1-2.45 2.59c-1.112.03-2.292.039-3.581.05-2.8.02-5.98.04-10.07.29a29.7 29.7 0 0 1-2.098.07"/>
    <path fill="#707477" d="M1294.941 761.36H2.851a2.526 2.526 0 0 1 0-5.051h1292.09a2.526 2.526 0 0 1 0 5.05"/>
  </g>
</svg>
