<svg xmlns="http://www.w3.org/2000/svg"  aria-hidden="true" width="1769" height="1531" viewBox="0 0 1769 1531"><g fill="#0763E4" transform="translate(.738 .05)"><polyline points="883.801 0 1767.523 1530.66 1623.223 1530.719 1244.121 874.098 1143.66 932.098 1489.313 1530.777 1347.66 1530.891 1347.352 1530.891 673.461 363.68 673.652 363.508 744.59 240.879 1079.66 821.238 1180.121 763.238 811.602 124.938 883.801 0"/><path d="M518.273438,1402.87891 L221.382813,1402.89062 L369.792969,1145.69922 L518.273438,1402.87891 Z M296.183594,1017.4375 L296.210938,1017.51953 L0,1530.71094 L592.589844,1530.66797 L592.660157,1530.77734 L739.980469,1530.89844 L369.75,889.628907 L296.183594,1017.4375"/><polyline points="657.863 390.66 1316.172 1530.879 1168.902 1530.758 1168.691 1530.699 1117.941 1530.668 1117.75 1530.648 970.184 1530.648 969.973 1530.641 918.012 1530.77 770.012 1530.898 384.84 863.77 458.773 735.82 843.902 1402.891 895.852 1402.758 895.762 1402.82 895.863 1402.879 484.773 690.859 558.684 562.871 1043.66 1402.879 1094.461 1402.871 584.012 518.75 584.34 518.418 584.203 518.48 657.863 390.66"/></g></svg>

