<svg xmlns="http://www.w3.org/2000/svg" width="1356" height="1000" viewBox="0 0 1356 1000"><g fill="none" fill-rule="evenodd"><path fill="#FFED71" fill-rule="nonzero" d="M1107.07066 639.373733C1097.55113 587.873733 1056.91051 520.885451 1028.2191 495.565139 1026.9691 494.463576 1025.01207 495.385451 1025.08238 497.045608 1027.76988 564.502639 1038.44176 620.815139 1105.44176 638.565139L1107.07066 639.373733M1099.89097 673.975331C1098.83238 673.983108 1098.25035 672.725295 1098.94176 671.912795 1132.53941 632.252639 1133.26988 607.322951 1164.43004 588.30342 1193.51988 570.533889 1219.58238 566.002639 1240.23082 562.072951 1241.98082 561.733108 1243.17222 563.815139 1241.99254 565.162795 1192.59019 621.713576 1134.21129 673.604201 1099.89097 673.975331M1095.99254 674.58467C1088.51988 648.662795 1044.37144 631.205764 995.879256 629.135451 994.660506 629.072951 993.699569 630.205764 993.941756 631.404983 999.379256 658.424514 1043.60191 693.86592 1095.99254 674.58467"/><path fill="#FFDA13" fill-rule="nonzero" d="M1083.74254,728.55342 C1083.51988,728.55342 1083.30113,728.533889 1083.08238,728.475295 C1081.73082,728.104201 1080.93004,726.725295 1081.30113,725.373733 C1084.17222,714.733108 1086.91051,704.02217 1089.55113,693.662795 C1098.19957,659.783889 1106.37144,627.77217 1117.26207,606.83467 C1131.69176,579.08467 1147.87144,555.975295 1162.15269,535.592483 C1174.16051,518.455764 1184.51988,503.654983 1190.55113,490.623733 C1191.12926,489.354201 1192.64097,488.80342 1193.90269,489.393264 C1195.17222,489.975295 1195.7191,491.475295 1195.12926,492.744826 C1188.92222,506.182326 1178.43004,521.154983 1166.28941,538.483108 C1152.10191,558.744826 1136.01988,581.705764 1121.74254,609.162795 C1111.12144,629.58467 1103.01988,661.322951 1094.44176,694.912795 C1091.78941,705.283889 1089.05113,716.014358 1086.17222,726.694045 C1085.87144,727.815139 1084.85191,728.55342 1083.74254,728.55342"/><path fill="#FFED71" fill-rule="nonzero" d="M1193.62144,495.014358 C1235.12144,496.604201 1245.81285,435.55342 1293.24254,402.27217 C1294.60972,401.30342 1294.10972,399.123733 1292.44957,398.885451 C1231.57066,389.912795 1154.74254,464.713576 1193.62144,495.014358"/><path fill="#FFDA13" fill-rule="nonzero" d="M1153.90269,554.694045 C1153.2191,554.694045 1152.53941,554.424514 1152.03941,553.873733 C1151.10191,552.854201 1151.17222,551.252639 1152.19176,550.315139 C1171.78941,532.33467 1197.25035,528.635451 1198.32066,528.483108 C1199.69176,528.283889 1200.98082,529.252639 1201.17222,530.635451 C1201.35972,532.02217 1200.40269,533.295608 1199.01988,533.483108 C1198.76988,533.52217 1174.01207,537.143264 1155.60972,554.033889 C1155.12144,554.475295 1154.51207,554.694045 1153.90269,554.694045"/><path fill="#FFED71" fill-rule="nonzero" d="M1192.84019,530.983108 C1260.78941,472.27217 1297.24254,493.635451 1353.92222,504.983108 C1355.71129,505.342483 1355.99254,507.783889 1354.33238,508.545608 C1316.94176,525.80342 1316.59019,532.154983 1274.98082,540.424514 C1245.49254,546.295608 1196.33238,544.682326 1192.84019,530.983108"/><path fill="#FFDA13" fill-rule="nonzero" d="M1124.87926,600.533889 C1124.53941,600.533889 1124.19176,600.463576 1123.85191,600.315139 C1122.58238,599.744826 1122.01207,598.252639 1122.58238,596.975295 C1136.19957,566.455764 1138.10191,551.694045 1136.94957,533.61592 C1136.85972,532.225295 1137.91051,531.02217 1139.31285,530.932326 C1140.68004,530.854201 1141.90269,531.904983 1141.99254,533.295608 C1143.19176,552.194045 1141.24254,567.55342 1127.19176,599.033889 C1126.76988,599.975295 1125.85191,600.533889 1124.87926,600.533889"/><path fill="#FFED71" fill-rule="nonzero" d="M1139.4691,533.455764 C1086.7816,530.05342 1117.66051,442.02217 1118.71129,400.092483 C1118.76207,398.213576 1121.21129,397.55342 1122.19957,399.154983 C1166.62144,470.635451 1173.05113,532.533889 1139.4691,533.455764"/><path fill="#7F7F7F" fill-rule="nonzero" d="M1066.71129,871.02217 C1065.60972,871.02217 1064.60191,870.30342 1064.28941,869.194045 C1063.90269,867.842483 1064.68004,866.455764 1066.0316,866.072951 C1087.76988,859.912795 1120.12926,848.77217 1149.94176,823.213576 C1171.85191,804.432326 1181.94957,789.174514 1184.51988,784.944045 L1184.42222,784.854201 C1184.35191,784.725295 1176.99254,771.455764 1170.78941,763.944045 C1169.90269,762.86592 1169.7816,761.385451 1170.4691,760.174514 C1171.17222,758.955764 1172.51988,758.315139 1173.90269,758.533889 C1178.85972,759.342483 1191.43004,760.795608 1201.56285,757.065139 C1211.37926,749.994826 1238.0316,700.412795 1248.66051,669.322951 C1250.5316,663.86592 1251.10972,660.514358 1250.37144,659.385451 C1249.58238,658.162795 1245.60972,657.822951 1241.41051,657.463576 C1226.01988,656.143264 1201.81285,658.104201 1186.40269,664.283889 C1185.28941,668.072951 1181.62144,679.385451 1176.51988,682.014358 C1173.4691,683.58467 1169.10972,681.283889 1162.25035,677.404983 C1159.26988,675.713576 1154.30113,672.932326 1152.84019,673.002639 C1135.12144,681.104201 1117.33238,692.904983 1101.39097,707.154983 C1100.94957,708.623733 1102.98082,714.08467 1104.21129,717.36592 C1106.74254,724.123733 1108.92222,729.963576 1105.98082,732.955764 C1103.23082,735.764358 1097.7191,733.694045 1090.75035,731.065139 C1087.55113,729.86592 1082.2816,727.873733 1080.69957,728.143264 C1046.39097,767.623733 1027.65269,815.932326 1029.2816,860.725295 C1029.33238,862.11592 1028.24254,863.283889 1026.85191,863.33467 C1025.46129,863.36592 1024.28941,862.295608 1024.24254,860.904983 C1023.35972,836.822951 1027.91051,812.27217 1037.75035,787.963576 C1046.76988,765.705764 1060.35972,743.795608 1077.07066,724.623733 C1079.76207,721.533889 1085.39097,723.654983 1092.5316,726.342483 C1095.60191,727.494826 1100.60972,729.373733 1102.35972,729.27217 C1102.62144,727.545608 1100.67222,722.322951 1099.48082,719.123733 C1096.92222,712.27217 1094.71129,706.354201 1097.92222,703.483108 C1114.51988,688.623733 1132.33238,676.80342 1150.85191,668.36592 C1153.84019,666.994826 1158.08238,669.233108 1164.73082,673.002639 C1167.71129,674.694045 1172.62144,677.475295 1174.23082,677.475295 C1174.26207,677.475295 1174.28941,677.475295 1174.31285,677.463576 C1176.7191,676.045608 1180.19957,668.135451 1181.85972,661.783889 L1182.17222,660.58467 L1183.31285,660.092483 C1201.48082,652.342483 1228.26988,651.264358 1241.85191,652.432326 C1248.01207,652.963576 1252.46129,653.342483 1254.60191,656.623733 C1256.64097,659.764358 1255.67222,664.432326 1253.44176,670.955764 C1243.15269,701.045608 1215.42222,753.854201 1204.15269,761.412795 L1203.91051,761.572951 L1203.64097,761.674514 C1194.59019,765.11592 1183.94957,764.795608 1177.2816,764.08467 C1182.83238,771.654983 1188.24254,781.342483 1188.80113,782.342483 C1189.78941,783.932326 1189.81285,785.975295 1188.84019,787.565139 C1186.17222,791.955764 1175.71129,807.783889 1153.23082,827.045608 C1122.67222,853.252639 1089.60972,864.643264 1067.40269,870.932326 C1067.17222,870.994826 1066.94176,871.02217 1066.71129,871.02217"/><path fill="#7F7F7F" fill-rule="nonzero" d="M1046.51988,865.592483 C1046.24254,865.592483 1045.94957,865.545608 1045.68004,865.444045 C1044.35972,864.983108 1043.67222,863.545608 1044.12926,862.225295 C1078.87926,763.654983 1140.65269,717.08467 1196.49254,684.533889 C1197.69957,683.83467 1199.24254,684.244826 1199.94957,685.455764 C1200.65269,686.654983 1200.24254,688.205764 1199.03941,688.904983 C1143.99254,720.983108 1083.10191,766.873733 1048.90269,863.904983 C1048.5316,864.944045 1047.56285,865.592483 1046.51988,865.592483"/><path fill="#313438" fill-rule="nonzero" d="M707.570663,121.455764 C689.25035,117.455764 684.351913,110.373733 684.590194,86.4635761 C684.879256,58.6042011 719.359725,15.6159201 780.082381,4.23310805 C811.820663,-1.71611095 885.762069,-8.66532995 895.140975,38.9440451 C933.371444,41.8346701 954.2191,87.2057641 951.402694,120.463576 C947.609725,165.30342 935.390975,190.205764 904.152694,229.744826 C904.152694,229.744826 881.25035,237.955764 870.430038,244.713576 C815.789413,244.713576 771.949569,203.05342 769.25035,190.072951 C766.56285,177.08467 707.570663,121.455764 707.570663,121.455764"/><path fill="#FCA688" fill-rule="nonzero" d="M707.570663,121.455764 C737.301131,127.592483 789.980819,111.514358 789.980819,111.514358 C799.019881,147.104201 829.660506,161.342483 829.660506,161.342483 C832.449569,159.02217 835.762069,157.213576 839.4691,156.135451 C853.9691,151.885451 869.172225,160.205764 873.410506,174.705764 C877.660506,189.205764 869.340194,204.404983 854.840194,208.654983 C864.25035,220.944045 878.051131,232.315139 904.152694,229.744826 C907.582381,250.662795 923.941756,295.944045 936.082381,314.822951 C936.082381,314.822951 907.801131,343.02217 882.4691,354.533889 C857.129256,366.05342 811.699569,369.30342 811.699569,369.30342 C815.082381,352.694045 814.320663,315.092483 807.019881,289.674514 C792.492538,295.463576 772.941756,299.014358 759.789413,293.975295 C744.9691,288.295608 734.070663,262.635451 726.320663,228.283889 C712.660506,229.873733 706.430038,228.072951 704.06285,222.424514 C702.152694,217.873733 705.7816,210.52217 709.519881,204.264358 C712.871444,198.694045 714.492538,193.033889 714.242538,176.873733 C714.082381,166.854201 711.25035,146.963576 709.832381,137.045608 C709.301131,133.322951 708.371444,127.80342 707.570663,121.455764"/><path fill="#CC5548" fill-rule="nonzero" d="M860.25035,180.475295 C859.152694,180.475295 858.140975,179.744826 857.820663,178.635451 C856.820663,175.05342 854.539413,172.252639 851.551131,170.944045 C848.601913,169.654983 845.129256,169.873733 841.789413,171.572951 C840.551131,172.205764 839.0316,171.713576 838.402694,170.475295 C837.762069,169.225295 838.262069,167.705764 839.50035,167.072951 C844.211288,164.674514 849.211288,164.404983 853.582381,166.322951 C857.949569,168.244826 861.2816,172.233108 862.691756,177.264358 C863.06285,178.61592 862.2816,180.002639 860.941756,180.385451 C860.711288,180.444045 860.480819,180.475295 860.25035,180.475295"/><path fill="#313438" fill-rule="nonzero" d="M736.840194 176.52217C737.840194 182.194045 741.351913 186.30342 744.672225 185.713576 748.00035 185.135451 749.879256 180.05342 748.871444 174.393264 747.871444 168.733108 744.359725 164.61592 741.039413 165.205764 737.711288 165.795608 735.832381 170.86592 736.840194 176.52217M762.961288 150.264358C762.410506 150.264358 761.851913 150.123733 761.340194 149.815139 750.25035 143.174514 733.890975 143.05342 721.56285 149.52217 720.019881 150.33467 718.109725 149.733108 717.301131 148.194045 716.492538 146.654983 717.082381 144.744826 718.629256 143.932326 732.81285 136.494826 751.699569 136.694045 764.582381 144.404983 766.082381 145.295608 766.56285 147.233108 765.672225 148.733108 765.082381 149.713576 764.0316 150.264358 762.961288 150.264358"/><path fill="#CC5548" fill-rule="nonzero" d="M808.980819 291.393264C807.992538 291.393264 807.06285 290.815139 806.652694 289.842483 806.109725 288.565139 806.7191 287.08467 808.00035 286.545608 823.762069 279.944045 838.56285 269.854201 848.191756 262.55342 849.301131 261.713576 850.890975 261.932326 851.730819 263.045608 852.570663 264.154983 852.351913 265.744826 851.242538 266.58467 841.371444 274.05342 826.199569 284.393264 809.961288 291.205764 809.640975 291.33467 809.31285 291.393264 808.980819 291.393264M752.621444 259.764358C752.289413 259.764358 751.9691 259.752639 751.652694 259.744826 750.262069 259.682326 749.180038 258.502639 749.242538 257.11592 749.301131 255.713576 750.492538 254.623733 751.871444 254.705764 759.832381 255.065139 769.992538 249.86592 774.101913 243.36592 774.851913 242.182326 776.410506 241.83467 777.590194 242.58467 778.762069 243.322951 779.121444 244.885451 778.371444 246.065139 773.50035 253.77217 762.129256 259.764358 752.621444 259.764358M847.152694 212.283889C845.582381 212.283889 844.00035 212.162795 842.430038 211.904983 841.051131 211.682326 840.121444 210.385451 840.340194 209.014358 840.56285 207.635451 841.851913 206.705764 843.230819 206.924514 846.691756 207.475295 850.180038 207.295608 853.590194 206.385451 854.930038 206.02217 856.320663 206.815139 856.680038 208.162795 857.039413 209.514358 856.242538 210.893264 854.902694 211.252639 852.340194 211.944045 849.75035 212.283889 847.152694 212.283889"/><path fill="#313438" fill-rule="nonzero" d="M928.140975,44.4440451 C927.449569,44.4440451 926.762069,44.2252951 926.180038,43.7721701 C921.422225,40.0221701 905.871444,37.6159201 896.422225,41.8346701 C894.832381,42.5456081 892.9691,41.8229511 892.25035,40.2331081 C891.539413,38.6432641 892.262069,36.7721701 893.851913,36.0651391 C905.109725,31.0338891 923.191756,33.3737331 930.090194,38.8151391 C931.461288,39.8932641 931.699569,41.8737331 930.621444,43.2448261 C929.992538,44.0338891 929.070663,44.4440451 928.140975,44.4440451"/><path fill="#FCA688" fill-rule="nonzero" d="M203.0316,726.854201 C194.820663,728.983108 188.152694,730.354201 178.949569,730.533889 C178.949569,730.533889 166.801131,727.295608 178.949569,750.373733 C191.101913,773.463576 234.199569,815.662795 238.172225,816.205764 C242.129256,816.744826 243.652694,807.77217 243.652694,807.77217 L203.0316,726.854201"/><path fill="#707477" fill-rule="nonzero" d="M531.652694,871.342483 L11.4808186,871.342483 C10.0901936,871.342483 8.96128764,870.213576 8.96128764,868.822951 C8.96128764,867.424514 10.0901936,866.295608 11.4808186,866.295608 L531.652694,866.295608 C533.039413,866.295608 534.172225,867.424514 534.172225,868.822951 C534.172225,870.213576 533.039413,871.342483 531.652694,871.342483"/><path fill="#4193F0" fill-rule="nonzero" d="M663.039413,999.182326 L661.551131,954.014358 C661.551131,954.014358 923.180038,921.05342 983.230819,907.893264 C1053.17222,892.572951 1088.18004,842.05342 1066.01207,750.014358 L784.840194,673.514358 C784.840194,673.514358 688.930038,642.873733 598.840194,616.244826 C572.410506,608.424514 544.570663,604.354201 521.711288,598.104201 C483.890975,587.77217 454.070663,579.904983 447.00035,577.674514 C412.621444,578.783889 241.621444,696.014358 199.640975,719.682326 C209.082381,743.182326 240.570663,799.02217 255.660506,832.912795 C266.180038,827.494826 481.640975,723.822951 481.640975,723.822951 L668.660506,798.502639 C601.082381,823.52217 529.359725,852.983108 522.012069,867.11592 C507.590194,894.83467 515.609725,998.373733 515.609725,998.373733 L663.039413,999.182326"/><path fill="#707477" fill-rule="nonzero" d="M198.140975,869.592483 C186.930038,869.592483 170.879256,859.514358 156.551131,850.514358 C153.371444,848.52217 150.379256,846.643264 147.570663,844.963576 C136.25035,838.162795 8.40269364,757.572951 1.10972464,747.342483 L0.75034964,746.822951 L0.67222464,746.205764 C-0.73011936,735.533889 9.14097464,721.354201 21.7894126,715.83467 C38.0003496,708.783889 56.5823806,712.143264 74.2620686,716.83467 C75.6019126,717.182326 76.4105056,718.572951 76.0511306,719.912795 C75.6917556,721.264358 74.3128496,722.072951 72.9612876,721.713576 C56.1722246,717.252639 38.6019126,714.02217 23.8128496,720.463576 C13.4808186,724.963576 5.01206864,736.424514 5.60972464,744.873733 C15.0706626,755.283889 131.590194,829.483108 150.172225,840.635451 C153.019881,842.33467 156.039413,844.233108 159.230819,846.244826 C173.590194,855.252639 191.4691,866.483108 200.56285,864.283889 C201.140975,864.143264 202.871444,863.385451 206.269881,859.36592 C207.172225,858.295608 208.762069,858.162795 209.832381,859.065139 C210.890975,859.963576 211.0316,861.55342 210.121444,862.623733 C206.832381,866.52217 204.172225,868.61592 201.742538,869.194045 C200.609725,869.463576 199.402694,869.592483 198.140975,869.592483"/><path fill="#010D32" fill-rule="nonzero" d="M177.512069,730.55342 C174.332381,730.58467 170.859725,730.514358 166.351913,730.354201 C147.640975,729.705764 116.9691,728.713576 97.7698806,724.444045 C92.4105056,723.252639 84.6019126,720.61592 75.6409746,718.154983 C75.6409746,718.154983 76.4105056,728.733108 72.2620686,743.252639 C70.1722246,750.565139 61.4808186,765.444045 61.4808186,765.444045 L162.9691,830.444045 L209.910506,861.744826 C225.410506,850.02217 250.402694,821.432326 250.402694,821.432326 L243.652694,807.924514 C220.090194,794.55342 184.082381,762.065139 177.512069,730.55342"/><path fill="#E5473E" fill-rule="nonzero" d="M781.519881,669.02217 C782.461288,683.533889 787.140975,734.635451 787.871444,749.264358 C787.961288,750.963576 789.371444,752.295608 791.082381,752.283966 L1066.44176,750.924514 C1068.12926,750.912795 1069.4691,749.483108 1069.37926,747.80342 C1059.41051,550.02217 1041.26207,481.225295 1021.80113,423.643264 C1001.26207,362.885451 967.629256,336.733108 936.769881,314.104201 C911.879256,340.135451 862.199569,364.752639 810.512069,369.412795 C805.012069,382.393264 786.359725,417.483108 779.140975,484.02217 C778.402694,490.842483 777.340194,535.205764 778.180038,559.592483 L781.519881,669.02217"/><path fill="#FCA688" fill-rule="nonzero" d="M928.332381,569.014358 C891.051131,631.52217 856.199569,675.225295 842.25035,678.33467 C799.7816,687.80342 616.539413,599.412795 613.449569,598.455764 C610.422225,598.315139 607.789413,598.252639 605.269881,598.182326 C602.711288,593.33467 589.461288,593.205764 571.152694,587.02217 C560.50035,583.424514 551.551131,583.83467 544.652694,580.514358 C538.890975,577.744826 534.109725,575.244826 529.762069,573.315139 C520.211288,569.065139 499.101913,564.322951 476.7191,563.623733 C470.269881,563.424514 467.789413,561.244826 466.180038,558.83467 C464.121444,555.764358 464.109725,553.143264 465.492538,550.795608 C457.301131,555.264358 448.140975,555.565139 444.5316,548.02217 C438.31285,548.194045 435.50035,545.11592 434.660506,542.244826 C433.082381,536.815139 436.7191,533.283889 441.680038,528.674514 C456.441756,514.944045 469.129256,511.322951 486.949569,510.072951 C478.480819,505.05342 466.4691,505.643264 463.832381,506.104201 C449.090194,508.674514 440.262069,506.02217 440.582381,496.975295 C441.051131,483.815139 478.410506,483.154983 500.7191,487.565139 C524.492538,492.252639 561.711288,496.322951 596.50035,509.635451 C608.180038,514.014358 623.160506,521.592483 639.7191,525.654983 L786.422225,563.373733 C796.25035,544.233108 805.742538,525.815139 813.621444,510.623733 L928.332381,569.014358"/><path fill="#CC5548" fill-rule="nonzero" d="M531.652694 516.83467C531.480819 516.83467 531.301131 516.822951 531.121444 516.783889 521.172225 514.654983 498.832381 511.873733 491.949569 512.182326 490.601913 512.244826 489.289413 512.315139 487.992538 512.404983 486.621444 512.514358 485.402694 511.432326 485.31285 510.045608 485.2191 508.654983 486.2816 507.455764 487.672225 507.36592 488.992538 507.27217 490.340194 507.205764 491.730819 507.143264 499.051131 506.822951 521.730819 509.61592 532.180038 511.842483 533.539413 512.135451 534.410506 513.475295 534.121444 514.83467 533.871444 516.02217 532.820663 516.83467 531.652694 516.83467M444.289413 549.932326C443.211288 549.932326 442.211288 549.233108 441.879256 548.154983 439.922225 541.822951 447.082381 534.635451 463.762069 526.194045 479.211288 518.373733 505.879256 517.322951 535.082381 523.373733 536.449569 523.662795 537.332381 524.994826 537.039413 526.36592 536.762069 527.725295 535.422225 528.604201 534.06285 528.322951 505.941756 522.483108 480.512069 523.385451 466.039413 530.705764 451.539413 538.045608 445.879256 544.002639 446.699569 546.662795 447.109725 547.994826 446.371444 549.412795 445.0316 549.822951 444.789413 549.893264 444.5316 549.932326 444.289413 549.932326"/><path fill="#CC5548" fill-rule="nonzero" d="M467.180038,551.162795 C466.5316,551.162795 465.879256,550.912795 465.390975,550.412795 C464.402694,549.424514 464.410506,547.83467 465.390975,546.842483 C472.00035,540.264358 486.941756,537.33467 493.461288,537.233108 C505.5316,537.045608 513.06285,538.77217 521.7816,540.77217 C526.840194,541.944045 532.582381,543.252639 539.922225,544.322951 C541.301131,544.52217 542.25035,545.80342 542.06285,547.182326 C541.859725,548.565139 540.590194,549.52217 539.191756,549.322951 C531.65269,548.225295 525.801131,546.885451 520.65269,545.705764 C511.902694,543.694045 504.992538,542.104201 493.539413,542.283889 C486.582381,542.393264 473.859725,545.545608 468.961288,550.424514 C468.4691,550.912795 467.820663,551.162795 467.180038,551.162795"/><path fill="#0766E7" fill-rule="nonzero" d="M670.609725,800.412795 C669.582381,800.412795 668.621444,799.783889 668.242538,798.764358 C667.762069,797.455764 668.430038,796.002639 669.742538,795.514358 C732.930038,772.194045 793.289413,752.33467 793.890975,752.135451 C795.2191,751.705764 796.640975,752.424514 797.082381,753.744826 C797.512069,755.072951 796.789413,756.494826 795.461288,756.932326 C794.859725,757.135451 734.590194,776.963576 671.492538,800.252639 C671.199569,800.36592 670.902694,800.412795 670.609725,800.412795"/><path fill="#707477" fill-rule="nonzero" d="M337.949569 548.432326 596.019881 614.533889C597.5316 614.924514 599.082381 614.002639 599.4691 612.494826L602.660506 600.045608C602.851913 599.30342 602.742538 598.545608 602.351913 597.893264 601.961288 597.244826 601.351913 596.77217 600.609725 596.592483L359.06285 534.713576 284.012069 291.565139C283.539413 290.072951 281.949569 289.233108 280.461288 289.705764L266.109725 294.154983C264.621444 294.623733 263.7816 296.213576 264.242538 297.705764L337.949569 548.432326ZM596.7191 619.674514C596.070663 619.674514 595.422225 619.592483 594.762069 619.424514L333.922225 552.61592 333.512069 551.233108 259.410506 299.162795C258.129256 295.05342 260.461288 290.623733 264.609725 289.33467L278.961288 284.873733C283.109725 283.58467 287.539413 285.912795 288.832381 290.072951L363.051131 530.52217 601.871444 591.694045C606.082381 592.77217 608.629256 597.08467 607.551131 601.295608L604.359725 613.744826C603.449569 617.30342 600.242538 619.674514 596.7191 619.674514M1143.64097 871.342483 1053.37926 871.342483C1051.99254 871.342483 1050.85972 870.213576 1050.85972 868.822951 1050.85972 867.424514 1051.99254 866.295608 1053.37926 866.295608L1143.64097 866.295608C1145.03941 866.295608 1146.17222 867.424514 1146.17222 868.822951 1146.17222 870.213576 1145.03941 871.342483 1143.64097 871.342483"/><path fill="#D4070F" fill-rule="nonzero" d="M944.980819 578.30342 927.211288 569.432326C925.961288 568.80342 925.449569 567.295608 926.082381 566.045608 926.699569 564.795608 928.211288 564.295608 929.461288 564.912795L943.0316 571.694045C964.7816 534.912795 981.551131 505.05342 997.7191 461.322951 998.211288 460.014358 999.660506 459.354201 1000.9691 459.83467 1002.2816 460.315139 1002.94176 461.764358 1002.46129 463.072951 985.840194 508.002639 968.652694 538.342483 946.180038 576.283889L944.980819 578.30342M809.160506 510.174514C808.769881 510.174514 808.371444 510.072951 808.00035 509.885451 806.762069 509.244826 806.2816 507.713576 806.922225 506.483108 813.4691 493.873733 818.660506 482.635451 824.160506 470.725295 830.902694 456.143264 837.859725 441.072951 847.492538 423.385451 848.152694 422.162795 849.691756 421.713576 850.910506 422.373733 852.129256 423.045608 852.590194 424.572951 851.922225 425.80342 842.371444 443.33467 835.449569 458.33467 828.742538 472.842483 823.461288 484.27217 818.00035 496.104201 811.402694 508.80342 810.949569 509.674514 810.070663 510.174514 809.160506 510.174514"/></g></svg>