<svg xmlns="http://www.w3.org/2000/svg" width='100%' height='100%' viewBox="0 0 1356 1000" aria-labelledby="title">
  <title id="title">An illustration of Dave looking relaxed while coding on a laptop</title>
  <g fill="none">
    <path fill="#FFED71" d="M1107.07 639.374c-9.519-51.5-50.16-118.489-78.85-143.809-1.25-1.101-3.208-.18-3.138 1.48 2.688 67.458 13.36 123.77 80.36 141.52l1.629.809m-7.18 34.601c-1.059.008-1.64-1.25-.95-2.062 33.598-39.66 34.329-64.59 65.489-83.61 29.09-17.77 55.152-22.3 75.8-26.23 1.75-.34 2.942 1.742 1.763 3.09-49.403 56.55-107.782 108.441-142.102 108.812m-3.898.61c-7.473-25.922-51.622-43.38-100.114-45.45-1.218-.062-2.18 1.07-1.937 2.27 5.437 27.02 49.66 62.46 102.05 43.18"/>
    <path fill="#FFDA13" d="M1083.743 728.553c-.223 0-.442-.02-.66-.078a2.523 2.523 0 0 1-1.782-3.101c2.871-10.64 5.61-21.352 8.25-31.711 8.649-33.88 16.82-65.89 27.711-86.828 14.43-27.75 30.61-50.86 44.89-71.243 12.009-17.136 22.368-31.937 28.4-44.968a2.516 2.516 0 0 1 3.35-1.23 2.513 2.513 0 0 1 1.227 3.35c-6.207 13.438-16.699 28.411-28.84 45.74-14.187 20.26-30.27 43.222-44.546 70.679-10.622 20.422-18.723 52.16-27.301 85.75-2.653 10.37-5.39 21.101-8.27 31.781a2.517 2.517 0 0 1-2.43 1.86"/>
    <path fill="#FFED71" d="M1193.621 495.014c41.5 1.59 52.192-59.46 99.622-92.742 1.367-.969.867-3.148-.793-3.387-60.88-8.972-137.707 65.829-98.829 96.13"/>
    <path fill="#FFDA13" d="M1153.903 554.694a2.5 2.5 0 0 1-1.864-.82 2.526 2.526 0 0 1 .153-3.559c19.597-17.98 45.058-21.68 46.129-21.832 1.37-.2 2.66.77 2.851 2.152a2.52 2.52 0 0 1-2.152 2.848c-.25.04-25.008 3.66-43.41 20.55a2.537 2.537 0 0 1-1.707.661"/>
    <path fill="#FFED71" d="M1192.84 530.983c67.95-58.71 104.403-37.348 161.082-26 1.79.36 2.07 2.8.41 3.563-37.39 17.257-37.742 23.609-79.351 31.879-29.488 5.87-78.649 4.257-82.14-9.442"/>
    <path fill="#FFDA13" d="M1124.88 600.534c-.34 0-.688-.07-1.028-.219a2.529 2.529 0 0 1-1.27-3.34c13.618-30.52 15.52-45.281 14.368-63.36a2.524 2.524 0 0 1 2.363-2.683c1.367-.078 2.59.973 2.68 2.364 1.199 18.898-.75 34.257-14.801 65.738a2.528 2.528 0 0 1-2.313 1.5"/>
    <path fill="#FFED71" d="M1139.47 533.456c-52.688-3.403-21.81-91.434-20.759-133.364.051-1.878 2.5-2.539 3.489-.937 44.421 71.48 50.851 133.379 17.27 134.3"/>
    <path fill="#7F7F7F" d="M1066.711 871.022a2.51 2.51 0 0 1-2.422-1.828 2.513 2.513 0 0 1 1.743-3.121c21.738-6.16 54.097-17.3 83.91-42.86 21.91-18.78 32.008-34.038 34.578-38.269l-.098-.09c-.07-.129-7.43-13.398-13.633-20.91a3.316 3.316 0 0 1-.32-3.77 3.334 3.334 0 0 1 3.434-1.64c4.957.808 17.527 2.262 27.66-1.469 9.816-7.07 36.469-56.652 47.098-87.742 1.87-5.457 2.449-8.809 1.71-9.938-.789-1.222-4.761-1.562-8.96-1.921-15.391-1.32-39.598.64-55.008 6.82-1.114 3.789-4.782 15.101-9.883 17.73-3.05 1.57-7.41-.73-14.27-4.609-2.98-1.691-7.949-4.473-9.41-4.402-17.719 8.101-35.508 19.902-51.449 34.152-.441 1.469 1.59 6.93 2.82 10.21 2.532 6.759 4.711 12.599 1.77 15.59-2.75 2.81-8.262.739-15.23-1.89-3.2-1.2-8.47-3.191-10.051-2.922-34.309 39.48-53.047 87.79-51.418 132.582a2.522 2.522 0 0 1-2.43 2.61c-1.39.03-2.563-1.04-2.61-2.43-.882-24.082 3.669-48.633 13.508-72.941 9.02-22.258 22.61-44.168 39.32-63.34 2.692-3.09 8.321-.969 15.462 1.718 3.07 1.153 8.078 3.032 9.828 2.93.261-1.726-1.688-6.949-2.88-10.148-2.558-6.852-4.769-12.77-1.558-15.64 16.598-14.86 34.41-26.68 52.93-35.118 2.988-1.371 7.23.867 13.879 4.637 2.98 1.691 7.89 4.472 9.5 4.472.031 0 .058 0 .082-.011 2.406-1.418 5.887-9.329 7.547-15.68l.312-1.2 1.14-.492c18.169-7.75 44.958-8.828 58.54-7.66 6.16.532 10.61.91 12.75 4.192 2.039 3.14 1.07 7.808-1.16 14.332-10.29 30.09-38.02 82.898-49.29 90.457l-.241.16-.27.102c-9.05 3.44-19.691 3.12-26.36 2.41 5.551 7.57 10.962 17.257 11.52 18.257.988 1.59 1.012 3.633.04 5.223-2.669 4.39-13.13 20.219-35.61 39.48-30.559 26.208-63.621 37.598-85.828 43.887-.23.063-.461.09-.692.09"/>
    <path fill="#7F7F7F" d="M1046.52 865.592a2.41 2.41 0 0 1-.84-.148 2.525 2.525 0 0 1-1.55-3.219c34.75-98.57 96.523-145.14 152.363-177.691a2.53 2.53 0 0 1 3.457.922 2.522 2.522 0 0 1-.91 3.449c-55.047 32.078-115.938 77.969-150.137 175a2.53 2.53 0 0 1-2.383 1.687"/>
    <path fill="#313438" d="M707.57 121.456c-18.32-4-23.218-11.082-22.98-34.992.29-27.86 34.77-70.848 95.492-82.23 31.739-5.95 105.68-12.9 115.059 34.71 38.23 2.89 59.078 48.262 56.262 81.52-3.793 44.84-16.012 69.742-47.25 109.28 0 0-22.903 8.212-33.723 14.97-54.64 0-98.48-41.66-101.18-54.641-2.687-12.988-61.68-68.617-61.68-68.617"/>
    <path fill="#FCA688" d="M707.57 121.456c29.731 6.136 82.41-9.942 82.41-9.942 9.04 35.59 39.68 49.828 39.68 49.828a27.19 27.19 0 0 1 9.81-5.207c14.5-4.25 29.702 4.07 33.94 18.57 4.25 14.5-4.07 29.7-18.57 33.95 9.41 12.289 23.211 23.66 49.313 21.09 3.43 20.918 19.789 66.199 31.93 85.078 0 0-28.282 28.2-53.614 39.71-25.34 11.52-70.77 14.77-70.77 14.77 3.383-16.609 2.622-54.21-4.68-79.628-14.526 5.789-34.077 9.34-47.23 4.3-14.82-5.68-25.718-31.34-33.468-65.691-13.66 1.59-19.891-.211-22.258-5.86-1.91-4.55 1.719-11.902 5.457-18.16 3.351-5.57 4.973-11.23 4.723-27.39-.16-10.02-2.993-29.91-4.41-39.828-.532-3.723-1.462-9.243-2.262-15.59"/>
    <path fill="#CC5548" d="M860.25 180.475a2.54 2.54 0 0 1-2.43-1.84c-1-3.582-3.28-6.382-6.269-7.691-2.95-1.289-6.422-1.07-9.762.629a2.516 2.516 0 0 1-3.386-1.098 2.525 2.525 0 0 1 1.097-3.402c4.711-2.398 9.711-2.668 14.082-.75 4.368 1.922 7.7 5.91 9.11 10.941a2.54 2.54 0 0 1-1.75 3.121 2.8 2.8 0 0 1-.692.09"/>
    <path fill="#313438" d="M736.84 176.522c1 5.672 4.512 9.781 7.832 9.192 3.328-.579 5.207-5.66 4.2-11.32-1-5.66-4.512-9.778-7.833-9.188-3.328.59-5.207 5.66-4.199 11.316m26.121-26.258c-.55 0-1.11-.14-1.62-.449-11.09-6.64-27.45-6.762-39.778-.293a3.157 3.157 0 0 1-2.934-5.59c14.184-7.437 33.07-7.238 45.953.473 1.5.89 1.98 2.828 1.09 4.328a3.168 3.168 0 0 1-2.71 1.531"/>
    <path fill="#CC5548" d="M808.98 291.393a2.52 2.52 0 0 1-2.327-1.55 2.518 2.518 0 0 1 1.347-3.297c15.762-6.602 30.563-16.692 40.192-23.993a2.528 2.528 0 0 1 3.05 4.032c-9.87 7.468-25.042 17.808-41.28 24.62a2.59 2.59 0 0 1-.981.188m-56.36-31.629c-.332 0-.652-.011-.968-.02a2.525 2.525 0 0 1-2.41-2.628c.058-1.402 1.25-2.492 2.628-2.41 7.961.36 18.122-4.84 22.23-11.34a2.522 2.522 0 0 1 3.49-.781 2.52 2.52 0 0 1 .78 3.48c-4.87 7.707-16.242 13.7-25.75 13.7m94.532-47.481c-1.57 0-3.153-.121-4.723-.379a2.524 2.524 0 0 1-2.09-2.89 2.52 2.52 0 0 1 2.89-2.09c3.462.55 6.95.37 10.36-.54a2.521 2.521 0 0 1 1.313 4.867 29.658 29.658 0 0 1-7.75 1.032"/>
    <path fill="#313438" d="M928.141 44.444a3.172 3.172 0 0 1-1.961-.672c-4.758-3.75-20.309-6.156-29.758-1.937-1.59.71-3.453-.012-4.172-1.602a3.159 3.159 0 0 1 1.602-4.168c11.258-5.031 29.34-2.691 36.238 2.75a3.152 3.152 0 0 1 .531 4.43 3.162 3.162 0 0 1-2.48 1.199"/>
    <path fill="#FCA688" d="M203.032 726.854c-8.211 2.13-14.88 3.5-24.082 3.68 0 0-12.149-3.238 0 19.84 12.152 23.09 55.25 65.289 59.222 65.832 3.957.539 5.48-8.434 5.48-8.434l-40.62-80.918"/>
    <path fill="#707477" d="M531.653 871.342H11.48a2.52 2.52 0 0 1-2.52-2.519 2.522 2.522 0 0 1 2.52-2.527h520.172a2.523 2.523 0 0 1 0 5.047"/>
    <path fill="#4193F0" d="m663.04 999.182-1.489-45.168s261.629-32.96 321.68-46.12c69.941-15.321 104.949-65.84 82.781-157.88l-281.172-76.5s-95.91-30.64-186-57.27c-26.43-7.82-54.27-11.89-77.129-18.14-37.82-10.332-67.64-18.199-74.71-20.43-34.38 1.11-205.38 118.34-247.36 142.008 9.441 23.5 40.93 79.34 56.02 113.23 10.519-5.417 225.98-109.089 225.98-109.089l187.02 74.68c-67.579 25.02-139.301 54.48-146.649 68.613-14.422 27.719-6.402 131.258-6.402 131.258l147.43.808"/>
    <path fill="#707477" d="M198.141 869.592c-11.211 0-27.262-10.078-41.59-19.078-3.18-1.992-6.172-3.87-8.98-5.55-11.32-6.801-139.168-87.391-146.461-97.622l-.36-.519-.078-.617c-1.402-10.672 8.469-24.852 21.117-30.371 16.211-7.051 34.793-3.692 52.473 1a2.516 2.516 0 0 1 1.79 3.078 2.526 2.526 0 0 1-3.09 1.8c-16.79-4.46-34.36-7.69-49.15-1.25-10.331 4.5-18.8 15.962-18.202 24.41 9.46 10.41 125.98 84.61 144.562 95.762 2.848 1.7 5.867 3.598 9.059 5.61 14.36 9.008 32.238 20.238 41.332 18.039.578-.14 2.308-.899 5.707-4.918a2.523 2.523 0 1 1 3.851 3.258c-3.289 3.898-5.949 5.992-8.378 6.57a15.54 15.54 0 0 1-3.602.398"/>
    <path fill="#010D32" d="M177.512 730.553c-3.18.032-6.652-.039-11.16-.199-18.711-.648-49.383-1.64-68.582-5.91-5.36-1.191-13.168-3.828-22.129-6.289 0 0 .77 10.578-3.379 25.098-2.09 7.312-10.781 22.191-10.781 22.191l101.488 65 46.942 31.3c15.5-11.722 40.492-40.312 40.492-40.312l-6.75-13.507c-23.563-13.372-59.57-45.86-66.14-77.372"/>
    <path fill="#E5473E" d="M781.52 669.022c.941 14.512 5.621 65.613 6.351 80.242a3.19 3.19 0 0 0 3.211 3.02l275.36-1.36a2.97 2.97 0 0 0 2.937-3.12c-9.968-197.782-28.117-266.579-47.578-324.16-20.539-60.759-54.172-86.91-85.031-109.54-24.89 26.031-74.57 50.649-126.258 55.309-5.5 12.98-24.152 48.07-31.371 114.61-.738 6.82-1.8 51.183-.961 75.57l3.34 109.43"/>
    <path fill="#FCA688" d="M928.332 569.014c-37.28 62.508-72.132 106.211-86.082 109.32-42.468 9.47-225.71-78.921-228.8-79.878-3.028-.14-5.66-.203-8.18-.274-2.559-4.847-15.809-4.976-34.117-11.16-10.653-3.597-19.602-3.187-26.5-6.508-5.762-2.77-10.543-5.27-14.89-7.199-9.552-4.25-30.661-8.992-53.044-9.691-6.45-.2-8.93-2.38-10.539-4.79-2.059-3.07-2.07-5.69-.687-8.038-8.192 4.468-17.352 4.77-20.961-2.774-6.22.172-9.032-2.906-9.871-5.777-1.579-5.43 2.058-8.961 7.019-13.57 14.762-13.731 27.45-17.352 45.27-18.602-8.47-5.02-20.48-4.43-23.118-3.969-14.742 2.57-23.57-.082-23.25-9.129.47-13.16 37.829-13.82 60.137-9.41 23.774 4.688 60.992 8.758 95.781 22.07 11.68 4.38 26.66 11.957 43.22 16.02l146.702 37.719a15120.18 15120.18 0 0 1 27.2-52.75l114.71 58.39"/>
    <path fill="#CC5548" d="M531.653 516.835c-.172 0-.352-.012-.532-.051-9.949-2.129-32.289-4.91-39.171-4.602-1.348.063-2.66.133-3.957.223-1.372.11-2.59-.973-2.68-2.36a2.523 2.523 0 0 1 2.36-2.68c1.32-.093 2.667-.16 4.058-.222 7.32-.32 30 2.473 40.449 4.7a2.524 2.524 0 0 1-.527 4.992m-87.364 33.097a2.526 2.526 0 0 1-2.41-1.777c-1.957-6.332 5.203-13.52 21.883-21.961 15.45-7.82 42.117-8.871 71.32-2.82a2.522 2.522 0 0 1 1.957 2.992 2.52 2.52 0 0 1-2.976 1.957c-28.121-5.84-53.55-4.938-68.024 2.383-14.5 7.34-20.16 13.297-19.34 15.957a2.523 2.523 0 0 1-1.667 3.16c-.243.07-.5.11-.743.11"/>
    <path fill="#CC5548" d="M467.18 551.163c-.648 0-1.3-.25-1.789-.75a2.527 2.527 0 0 1 0-3.57c6.61-6.579 21.55-9.508 28.07-9.61 12.07-.187 19.602 1.54 28.32 3.54 5.06 1.171 10.801 2.48 18.141 3.55a2.536 2.536 0 0 1 2.14 2.86 2.528 2.528 0 0 1-2.87 2.14c-7.54-1.098-13.39-2.438-18.54-3.617-8.75-2.012-15.66-3.602-27.113-3.422-6.957.11-19.68 3.262-24.578 8.14a2.534 2.534 0 0 1-1.781.739"/>
    <path fill="#0766E7" d="M670.61 800.413a2.524 2.524 0 0 1-2.367-1.649 2.536 2.536 0 0 1 1.5-3.25c63.187-23.32 123.546-43.18 124.148-43.379 1.328-.43 2.75.29 3.191 1.61a2.533 2.533 0 0 1-1.62 3.187c-.602.203-60.872 20.032-123.97 43.32-.292.114-.59.16-.882.16"/>
    <path fill="#707477" d="m337.95 548.432 258.07 66.102a2.839 2.839 0 0 0 3.45-2.04l3.19-12.448c.192-.743.083-1.5-.308-2.153a2.8 2.8 0 0 0-1.742-1.3l-241.547-61.88-75.05-243.148c-.474-1.492-2.063-2.332-3.552-1.86l-14.351 4.45a2.85 2.85 0 0 0-1.867 3.55l73.707 250.727Zm258.77 71.243a7.887 7.887 0 0 1-1.958-.25l-260.84-66.81-.41-1.382-74.101-252.07c-1.282-4.11 1.05-8.54 5.199-9.828l14.351-4.461c4.149-1.29 8.578 1.039 9.871 5.199l74.22 240.45 238.82 61.171c4.21 1.078 6.757 5.39 5.68 9.602l-3.192 12.449c-.91 3.558-4.117 5.93-7.64 5.93m546.921 251.667h-90.262a2.523 2.523 0 0 1 0-5.046h90.262a2.527 2.527 0 0 1 2.531 2.527c0 1.39-1.133 2.52-2.531 2.52"/>
    <path fill="#D4070F" d="m944.98 578.303-17.769-8.87a2.514 2.514 0 0 1-1.129-3.387 2.517 2.517 0 0 1 3.38-1.133l13.57 6.781c21.75-36.781 38.52-66.64 54.687-110.371a2.535 2.535 0 0 1 3.25-1.488 2.516 2.516 0 0 1 1.492 3.238c-16.62 44.93-33.808 75.27-56.281 113.21l-1.2 2.02m-135.82-68.128c-.39 0-.789-.102-1.16-.29a2.525 2.525 0 0 1-1.078-3.402c6.547-12.61 11.739-23.848 17.239-35.758 6.742-14.582 13.699-29.652 23.332-47.34a2.525 2.525 0 0 1 3.418-1.011 2.535 2.535 0 0 1 1.011 3.43c-9.55 17.53-16.472 32.53-23.18 47.038-5.28 11.43-10.742 23.262-17.34 35.961a2.529 2.529 0 0 1-2.241 1.372"/>
  </g>
</svg>
